<svg width="151" height="72" xmlns="http://www.w3.org/2000/svg" xmlns:xlink="http://www.w3.org/1999/xlink" xml:space="preserve" overflow="hidden"><defs><clipPath id="clip0"><rect x="0" y="0" width="151" height="72"/></clipPath></defs><g clip-path="url(#clip0)"><path d="M139.874 19.3386C139.874 11.1263 136.96 4.50351 132.986 0L144.377 0C148.086 4.50351 150.47 12.186 150.47 19.3386L150.47 19.3386C150.47 26.4912 148.086 34.1737 144.377 38.6772L132.986 38.6772C136.96 34.1737 139.874 27.5509 139.874 19.3386L139.874 19.3386Z" fill="#F9423A" transform="matrix(1 0 0 1.00662 0.397368 0)"/><path d="M10.3316 0 0 0 14.3053 38.6772 19.8684 38.6772 22.2526 32.0544 10.3316 0Z" fill="#F9423A" transform="matrix(1 0 0 1.00662 0.397368 0)"/><path d="M38.1474 0 27.8158 0 42.1211 38.6772 47.6842 38.6772 50.0684 32.0544 38.1474 0Z" fill="#F9423A" transform="matrix(1 0 0 1.00662 0.397368 0)"/><path d="M117.621 71.5263 117.621 34.9684 117.621 34.1737 117.621 31.2596 117.621 6.09298 117.621 3.97368 117.621 2.91404 117.621 0 107.554 0 107.554 31.2596 107.554 71.5263 117.621 71.5263Z" fill="#F9423A" transform="matrix(1 0 0 1.00662 0.397368 0)"/><path d="M60.6649 5.82807C60.6649 3.97368 61.1947 1.85439 61.9895 0L70.9965 0C70.2018 1.32456 69.407 3.97368 70.4667 6.35789 71.2614 8.47719 72.8509 10.0667 74.7053 11.3912 77.0895 12.9807 79.7386 13.7754 82.1228 14.8351 84.507 15.8947 87.1561 17.2193 89.5403 19.3386 92.7193 21.9877 94.5737 25.4316 94.8386 29.6702 94.8386 30.2 94.8386 30.7298 94.8386 31.2596 94.8386 33.9088 94.3088 36.5579 93.2491 38.9421L83.9772 38.9421C84.7719 37.3526 85.5667 35.2333 85.5667 33.3789 85.3018 28.6105 79.2088 25.9614 74.4403 23.5772 73.6456 23.3123 72.8509 22.7825 72.321 22.5175 70.2018 21.4579 68.0825 20.3982 66.2281 18.8088 64.3737 17.2193 62.7842 15.6298 61.9895 13.2456 61.1947 11.1263 60.9298 9.00702 60.9298 6.62281 60.9298 6.62281 60.9298 6.09298 60.9298 5.82807Z" fill="#F9423A" transform="matrix(1 0 0 1.00662 0.397368 0)"/></g></svg>